{"buffers":[{"uri":"BUTTON.bin","byteLength":49536}],"asset":{"version":"2.0","generator":"gltfpack 0.16"},"bufferViews":[{"buffer":0,"byteOffset":0,"byteLength":17652,"byteStride":12,"target":34962},{"buffer":0,"byteOffset":17652,"byteLength":17652,"byteStride":12,"target":34962},{"buffer":0,"byteOffset":35304,"byteLength":14232,"target":34963}],"accessors":[{"bufferView":0,"byteOffset":0,"componentType":5126,"count":1471,"type":"VEC3","min":[0.00177530944,-0.0284077283,-0.00100000005],"max":[0.0163753089,-0.0138077298,0.00499999989]},{"bufferView":1,"byteOffset":0,"componentType":5126,"count":1471,"type":"VEC3"},{"bufferView":2,"byteOffset":0,"componentType":5123,"count":7116,"type":"SCALAR"}],"materials":[{"pbrMetallicRoughness":{"baseColorFactor":[0.964705884,0.964705884,0.952941179,1],"metallicFactor":0,"roughnessFactor":0},"doubleSided":true}],"meshes":[{"primitives":[{"attributes":{"POSITION":0,"NORMAL":1},"mode":4,"indices":2,"material":0}]}],"nodes":[{"mesh":0},{"name":"BUTTON v9","children":[0]}],"scenes":[{"name":"BUTTON v9","nodes":[1]}]}