{"buffers":[{"uri":"CASE.bin","byteLength":33552}],"asset":{"version":"2.0","generator":"gltfpack 0.16"},"bufferViews":[{"buffer":0,"byteOffset":0,"byteLength":13200,"byteStride":12,"target":34962},{"buffer":0,"byteOffset":13200,"byteLength":13200,"byteStride":12,"target":34962},{"buffer":0,"byteOffset":26400,"byteLength":7152,"target":34963}],"accessors":[{"bufferView":0,"byteOffset":0,"componentType":5126,"count":1100,"type":"VEC3","min":[-0.00419999845,-0.0613600016,-0.00549999997],"max":[0.0223700032,0.00419999845,0.0170000009]},{"bufferView":1,"byteOffset":0,"componentType":5126,"count":1100,"type":"VEC3"},{"bufferView":2,"byteOffset":0,"componentType":5123,"count":3576,"type":"SCALAR"}],"materials":[{"pbrMetallicRoughness":{"baseColorFactor":[0.964705884,0.964705884,0.952941179,1],"metallicFactor":0,"roughnessFactor":0},"doubleSided":true}],"meshes":[{"primitives":[{"attributes":{"POSITION":0,"NORMAL":1},"mode":4,"indices":2,"material":0}]}],"nodes":[{"mesh":0},{"name":"CASE v13","children":[0]}],"scenes":[{"name":"CASE v13","nodes":[1]}]}